<?xml version="1.0" encoding="utf-8"?>
<!-- Generator: Adobe Illustrator 19.2.1, SVG Export Plug-In . SVG Version: 6.00 Build 0)  -->
<svg version="1.1" id="Layer_1" xmlns="http://www.w3.org/2000/svg" xmlns:xlink="http://www.w3.org/1999/xlink" x="0px" y="0px"
	 viewBox="0 0 479 479" style="enable-background:new 0 0 479 479;" xml:space="preserve">
<style type="text/css">
	.st0{fill:#3D3D3D;}
	.st1{fill:#3D3D3D;stroke:#FFFFFF;stroke-width:20;stroke-miterlimit:10;}
</style>
<path class="st0" d="M239.5,10C112.8,10,10,112.8,10,239.5S112.8,469,239.5,469S469,366.2,469,239.5S366.2,10,239.5,10z"/>
<path class="st1" d="M391.6,240.7c0-8.4-4.7-12.3-9.3-14.2c3.6-3.1,5.9-7.6,5.9-12.7c0-9.3-7.7-16.8-17.1-16.8H322l2.5-11.5
	c3.3-15.3,1.1-32.7,0.4-37.6c-1.8-11.7-12.3-24.9-23.8-24.9h-0.8c-5.5,0-14.6,3.1-14.6,23.5c0,49.8-22.9,50.4-23.9,50.4l0,0h-3.4
	v-6.7h-54.8V318h54.7v-6.7H354c9.4,0,17.1-7.5,17.1-16.8c0-3.9-1.4-7.5-3.7-10.4c7.9-1.5,13.9-8.3,13.9-16.5c0-3.9-1.4-7.5-3.7-10.4
	C385.6,255.7,391.6,248.9,391.6,240.7z"/>
<path class="st1" d="M316.6,259.7c0-8.4-4.7-12.3-9.3-14.2c3.6-3.1,5.9-7.6,5.9-12.7c0-9.3-7.7-16.8-17.1-16.8H247l2.5-11.5
	c3.3-15.3,1.1-32.7,0.4-37.6c-1.8-11.7-12.3-24.9-23.8-24.9h-0.8c-5.5,0-14.6,3.1-14.6,23.5c0,49.8-22.9,50.4-23.9,50.4l0,0h-3.4
	v-6.7h-54.8V337h54.7v-6.7H279c9.4,0,17.1-7.5,17.1-16.8c0-3.9-1.4-7.5-3.7-10.4c7.9-1.5,13.9-8.3,13.9-16.5c0-3.9-1.4-7.5-3.7-10.4
	C310.6,274.7,316.6,267.9,316.6,259.7z"/>
</svg>
