<?xml version="1.0" encoding="utf-8"?>
<!-- Generator: Adobe Illustrator 19.2.1, SVG Export Plug-In . SVG Version: 6.00 Build 0)  -->
<svg version="1.1" id="Layer_1" xmlns="http://www.w3.org/2000/svg" xmlns:xlink="http://www.w3.org/1999/xlink" x="0px" y="0px"
	 viewBox="0 0 479 479" style="enable-background:new 0 0 479 479;" xml:space="preserve">
<style type="text/css">
	.st0{fill:#FFFFFF;}
	.st1{stroke:#3D3D3D;stroke-miterlimit:10;}
</style>
<path class="st0" d="M239.5,10C112.8,10,10,112.8,10,239.5S112.8,469,239.5,469S469,366.2,469,239.5S366.2,10,239.5,10z"/>
<path class="st1" d="M340.4,253L192.8,353.5c-5,3.4-11.4,3.7-16.8,0.9c-5.3-2.8-8.6-8.3-8.6-14.4V139c0-6.1,3.3-11.5,8.6-14.4
	c5.3-2.8,11.8-2.5,16.8,0.9L340.4,226c4.5,3,7.1,8.1,7.1,13.5S344.9,249.9,340.4,253z"/>
</svg>
