<?xml version="1.0" encoding="utf-8"?>
<!-- Generator: Adobe Illustrator 19.2.1, SVG Export Plug-In . SVG Version: 6.00 Build 0)  -->
<svg version="1.1" id="Layer_1" xmlns="http://www.w3.org/2000/svg" xmlns:xlink="http://www.w3.org/1999/xlink" x="0px" y="0px"
	 viewBox="0 0 479 479" style="enable-background:new 0 0 479 479;" xml:space="preserve">
<style type="text/css">
	.st0{fill:#FFFFFF;}
	.st1{fill:#3D3D3D;stroke:#3D3D3D;stroke-miterlimit:10;}
</style>
<path class="st0" d="M239.5,10C112.8,10,10,112.8,10,239.5S112.8,469,239.5,469S469,366.2,469,239.5S366.2,10,239.5,10z"/>
<path class="st1" d="M320.3,249.7l-111.8,76.1c-3.8,2.6-8.6,2.8-12.7,0.7c-4-2.1-6.5-6.3-6.5-10.9V163.4c0-4.6,2.5-8.7,6.5-10.9
	c4-2.1,8.9-1.9,12.7,0.7l111.8,76.1c3.4,2.3,5.4,6.1,5.4,10.2S323.7,247.4,320.3,249.7z"/>
</svg>
