<?xml version="1.0" encoding="utf-8"?>
<!-- Generator: Adobe Illustrator 19.2.1, SVG Export Plug-In . SVG Version: 6.00 Build 0)  -->
<svg version="1.1" id="Layer_1" xmlns="http://www.w3.org/2000/svg" xmlns:xlink="http://www.w3.org/1999/xlink" x="0px" y="0px"
	 viewBox="0 0 479 479" style="enable-background:new 0 0 479 479;" xml:space="preserve">
<style type="text/css">
	.st0{fill:none;}
	.st1{fill:none;stroke:#FFFFFF;stroke-width:24;stroke-miterlimit:10;}
	.st2{fill:#2A2A2A;stroke:#FFFFFF;stroke-width:24;stroke-miterlimit:10;}
</style>
<path class="st0" d="M239.5,10C112.8,10,10,112.8,10,239.5S112.8,469,239.5,469S469,366.2,469,239.5S366.2,10,239.5,10z"/>
<g>
	<path class="st1" d="M378.7,248.4c1.5-3.1,6.8-14.7,1.6-26.7c-1.2-2.8-3.5-7.8-9.2-11.6c-4.3-2.8-9.6-4.4-15.5-4.4h-47.9
		c-0.1,0-0.3,0-0.5-0.2c-0.1-0.1-0.1-0.2-0.1-0.3s0.1-0.2,0.1-0.2c7-9.5,6-28.1,6-28.1c-0.6-10.5-1.2-18.3-5.8-27.6
		c-2-4-14.1-27.9-32.2-26.7c-8.6,0.5-17.1,6.8-20.5,14.2c-5,11.1,5.2,17.1,3.9,34.3c-0.3,4.3-1.7,18.7-12.6,28.1
		c-3.8,3.3-14.2,7.8-35.1,16.6c-1.5,0.6-4.3,2.5-8.2,4.9c-3.7,2.3-8.4,5.1-8.4,11.1v71.2c0,7.3,5.8,13.5,13.8,14.6l26.6,3.7
		c7.3,2.9,17.4,6.5,29.9,9.2c17,3.8,30.2,4.2,39,4.4c17.7,0.5,26.1-1.2,32.3-3.1c6.8-2.2,10.7-4.5,13.7-7.1
		c5.2-4.5,7.7-9.5,8.8-12.5c2.4-2.5,5.1-5.9,7.4-10.2c3.9-7.2,5-13.9,5.3-18.3C373.6,271.6,376.1,260,378.7,248.4z"/>
	<path class="st2" d="M307.5,270.5c1.5-3.1,6.8-14.7,1.6-26.7c-1.2-2.8-3.5-7.8-9.2-11.6c-4.3-2.8-9.6-4.4-15.5-4.4h-47.9
		c-0.1,0-0.3,0-0.5-0.2c-0.1-0.1-0.1-0.2-0.1-0.3c0-0.1,0.1-0.2,0.1-0.2c7-9.5,6-28.1,6-28.1c-0.6-10.5-1.2-18.3-5.8-27.6
		c-2-4-14.1-27.9-32.2-26.7c-8.6,0.5-17.1,6.8-20.5,14.2c-5,11.1,5.2,17.1,3.9,34.3c-0.3,4.3-1.7,18.7-12.6,28.1
		c-3.8,3.3-14.2,7.8-35.1,16.6c-1.5,0.6-4.3,2.5-8.2,4.9c-3.7,2.3-8.4,5.1-8.4,11.1v71.2c0,7.3,5.8,13.5,13.8,14.6l26.6,3.7
		c7.3,2.9,17.4,6.5,29.9,9.2c17,3.8,30.2,4.2,39,4.4c17.7,0.5,26.1-1.2,32.3-3.1c6.8-2.2,10.7-4.5,13.7-7.1
		c5.2-4.5,7.7-9.5,8.8-12.5c2.4-2.5,5.1-5.9,7.4-10.2c3.9-7.2,5-13.9,5.3-18.3c1.7-5.1,3.3-10.7,4.7-16.7
		C305.8,282.1,306.8,276,307.5,270.5z"/>
</g>
</svg>
