<?xml version="1.0" encoding="utf-8"?>
<!-- Generator: Adobe Illustrator 26.0.3, SVG Export Plug-In . SVG Version: 6.00 Build 0)  -->
<svg version="1.1" id="Layer_1" xmlns="http://www.w3.org/2000/svg" xmlns:xlink="http://www.w3.org/1999/xlink" x="0px" y="0px"
	 viewBox="0 0 479 479" style="enable-background:new 0 0 479 479;" xml:space="preserve">
<style type="text/css">
	.st0{fill:none;}
	.st1{fill:#2A2A2A;stroke:#FFFFFF;stroke-width:24;stroke-miterlimit:10;}
</style>
<path class="st0" d="M239.5,10C112.8,10,10,112.8,10,239.5S112.8,469,239.5,469S469,366.2,469,239.5S366.2,10,239.5,10z"/>
<g>
	<path class="st1" d="M364.4,247.4c1.3-2.7,6-13,1.4-23.7c-1.1-2.5-3.1-6.9-8.2-10.3c-3.8-2.5-8.5-3.9-13.7-3.9h-42.5
		c-0.1,0-0.3,0-0.4-0.2c-0.1-0.1-0.1-0.2-0.1-0.3s0.1-0.2,0.1-0.2c6.2-8.4,5.3-24.9,5.3-24.9c-0.5-9.3-1.1-16.2-5.1-24.5
		c-1.8-3.5-12.5-24.7-28.5-23.7c-7.6,0.4-15.2,6-18.2,12.6c-4.4,9.8,4.6,15.2,3.5,30.4c-0.3,3.8-1.5,16.6-11.2,24.9
		c-3.4,2.9-12.6,6.9-31.1,14.7c-1.3,0.5-3.8,2.2-7.3,4.3c-3.3,2-7.4,4.5-7.4,9.8v63.1c0,6.5,5.1,12,12.2,12.9l23.6,3.3
		c6.5,2.6,15.4,5.8,26.5,8.2c15.1,3.4,26.8,3.7,34.6,3.9c15.7,0.4,23.1-1.1,28.6-2.7c6-2,9.5-4,12.1-6.3c4.6-4,6.8-8.4,7.8-11.1
		c2.1-2.2,4.5-5.2,6.6-9c3.5-6.4,4.4-12.3,4.7-16.2C359.9,268,362.1,257.7,364.4,247.4z"/>
	<path class="st1" d="M301.3,267c1.3-2.7,6-13,1.4-23.7c-1.1-2.5-3.1-6.9-8.2-10.3c-3.8-2.5-8.5-3.9-13.7-3.9h-42.5
		c-0.1,0-0.3,0-0.4-0.2c-0.1-0.1-0.1-0.2-0.1-0.3c0-0.1,0.1-0.2,0.1-0.2c6.2-8.4,5.3-24.9,5.3-24.9c-0.5-9.3-1.1-16.2-5.1-24.5
		c-1.8-3.5-12.5-24.7-28.5-23.7c-7.6,0.4-15.2,6-18.2,12.6c-4.4,9.8,4.6,15.2,3.5,30.4c-0.3,3.8-1.5,16.6-11.2,24.9
		c-3.4,2.9-12.6,6.9-31.1,14.7c-1.3,0.5-3.8,2.2-7.3,4.3c-3.3,2-7.4,4.5-7.4,9.8v63.1c0,6.5,5.1,12,12.2,12.9l23.6,3.3
		c6.5,2.6,15.4,5.8,26.5,8.2c15.1,3.4,26.8,3.7,34.6,3.9c15.7,0.4,23.1-1.1,28.6-2.7c6-2,9.5-4,12.1-6.3c4.6-4,6.8-8.4,7.8-11.1
		c2.1-2.2,4.5-5.2,6.6-9c3.5-6.4,4.4-12.3,4.7-16.2c1.5-4.5,2.9-9.5,4.2-14.8C299.8,277.3,300.7,271.9,301.3,267z"/>
</g>
</svg>
