<?xml version="1.0" encoding="utf-8"?>
<!-- Generator: Adobe Illustrator 26.0.3, SVG Export Plug-In . SVG Version: 6.00 Build 0)  -->
<svg version="1.1" id="Layer_1" xmlns="http://www.w3.org/2000/svg" xmlns:xlink="http://www.w3.org/1999/xlink" x="0px" y="0px"
	 viewBox="0 0 479 479" style="enable-background:new 0 0 479 479;" xml:space="preserve">
<style type="text/css">
	.st0{fill:none;}
	.st1{fill:#2A2A2A;stroke:#FFFFFF;stroke-width:24;stroke-miterlimit:10;}
</style>
<path class="st0" d="M239.5,10C112.8,10,10,112.8,10,239.5S112.8,469,239.5,469S469,366.2,469,239.5S366.2,10,239.5,10z"/>
<path class="st1" d="M153.2,237.2c-1.5,3-6.5,14-1.6,25.5c1.1,2.6,3.2,7.5,8.8,11.2c4.1,2.7,9.2,4.2,14.9,4.2H221
	c0.1,0,0.3,0,0.4,0.2c0.1,0.1,0.1,0.2,0.1,0.3c0,0.1-0.1,0.2-0.1,0.2c-6.7,9.1-5.7,26.9-5.7,26.9c0.6,10,1,17.5,5.6,26.5
	c2,3.9,13.5,26.6,30.8,25.5c8.2-0.5,16.3-6.5,19.5-13.7c4.7-10.6-4.9-16.3-3.6-32.7c0.3-4.2,1.6-17.8,12.1-27
	c3.6-3.1,13.5-7.4,33.6-15.8c1.5-0.6,4.2-2.4,7.8-4.6c3.5-2.2,8-4.9,8-10.6v-68c0-7-5.6-12.9-13.2-13.9l-25.4-3.5
	c-7-2.8-16.7-6.1-28.5-8.7c-16.3-3.5-28.8-4.1-37.3-4.2c-16.9-0.5-25,1.1-30.8,3c-6.5,2.1-10.2,4.4-13,6.7c-5,4.2-7.3,9.1-8.4,11.9
	c-2.2,2.4-4.8,5.6-7.1,9.8c-3.7,6.8-4.8,13.3-5.1,17.5c-1.6,4.8-3.2,10.2-4.5,16C154.8,226.1,153.8,232,153.2,237.2z"/>
</svg>
