<?xml version="1.0" encoding="utf-8"?>
<!-- Generator: Adobe Illustrator 19.2.1, SVG Export Plug-In . SVG Version: 6.00 Build 0)  -->
<svg version="1.1" id="Layer_1" xmlns="http://www.w3.org/2000/svg" xmlns:xlink="http://www.w3.org/1999/xlink" x="0px" y="0px"
	 viewBox="0 0 479 479" style="enable-background:new 0 0 479 479;" xml:space="preserve">
<style type="text/css">
	.st0{fill:none;}
	.st1{stroke:#000000;stroke-width:20;stroke-miterlimit:10;}
	.st2{fill:#FFFFFF;stroke:#FFFFFF;stroke-width:20;stroke-miterlimit:10;}
	.st3{fill:none;stroke:#FFFFFF;stroke-width:24;stroke-miterlimit:10;}
</style>
<path class="st0" d="M239.5,10C112.8,10,10,112.8,10,239.5S112.8,469,239.5,469S469,366.2,469,239.5S366.2,10,239.5,10z"/>
<path class="st1" d="M266-54.1"/>
<path class="st2" d="M228,354.9"/>
<path class="st3" d="M348.3,250.3c1.7-3.5,7.5-16.2,1.8-29.5c-1.3-3-3.7-8.7-10.2-12.9c-4.7-3.1-10.6-4.8-17.2-4.8h-52.8
	c-0.1,0-0.4,0-0.5-0.2c-0.1-0.1-0.1-0.2-0.1-0.4s0.1-0.2,0.1-0.2c7.7-10.5,6.6-31.1,6.6-31.1c-0.7-11.6-1.2-20.2-6.5-30.6
	c-2.3-4.5-15.6-30.8-35.6-29.5c-9.5,0.6-18.9,7.5-22.6,15.8c-5.4,12.3,5.7,18.9,4.2,37.8c-0.4,4.8-1.9,20.6-14,31.2
	c-4.2,3.6-15.6,8.5-38.8,18.3c-1.7,0.7-4.8,2.8-9,5.3c-4.1,2.5-9.3,5.7-9.3,12.3v78.6c0,8.1,6.5,14.9,15.3,16.1l29.4,4.1
	c8.1,3.2,19.3,7.1,33,10.1c18.9,4.1,33.3,4.7,43.1,4.9c19.5,0.6,28.9-1.3,35.6-3.5c7.5-2.4,11.8-5.1,15-7.8
	c5.8-4.9,8.4-10.5,9.7-13.8c2.6-2.8,5.5-6.5,8.2-11.3c4.3-7.9,5.5-15.4,5.9-20.2c1.9-5.5,3.7-11.8,5.2-18.5
	C346.5,263.1,347.6,256.4,348.3,250.3z"/>
</svg>
